# Blender v3.0.1 OBJ File: ''
# www.blender.org
mtllib textured.mtl
o Cylinder
v 0.000000 -0.000000 -0.075000
v 0.000000 0.050000 -0.075000
v 0.009755 0.049039 -0.075000
v 0.000000 -0.000000 0.075000
v 0.009755 0.049039 0.075000
v 0.000000 0.050000 0.075000
v 0.019134 0.046194 -0.075000
v 0.019134 0.046194 0.075000
v 0.027779 0.041574 -0.075000
v 0.027779 0.041574 0.075000
v 0.035356 0.035355 -0.075000
v 0.035356 0.035355 0.075000
v 0.041574 0.027778 -0.075000
v 0.041574 0.027778 0.075000
v 0.046194 0.019134 -0.075000
v 0.046194 0.019134 0.075000
v 0.049039 0.009754 -0.075000
v 0.049039 0.009754 0.075000
v 0.050000 -0.000000 -0.075000
v 0.050000 -0.000000 0.075000
v 0.049039 -0.009755 -0.075000
v 0.049039 -0.009755 0.075000
v 0.046194 -0.019134 -0.075000
v 0.046194 -0.019134 0.075000
v 0.041574 -0.027779 -0.075000
v 0.041574 -0.027779 0.075000
v 0.035356 -0.035355 -0.075000
v 0.035356 -0.035355 0.075000
v 0.027779 -0.041574 -0.075000
v 0.027779 -0.041574 0.075000
v 0.019134 -0.046194 -0.075000
v 0.019134 -0.046194 0.075000
v 0.009755 -0.049039 -0.075000
v 0.009755 -0.049039 0.075000
v 0.000000 -0.050000 -0.075000
v 0.000000 -0.050000 0.075000
v -0.009754 -0.049039 -0.075000
v -0.009754 -0.049039 0.075000
v -0.019134 -0.046194 -0.075000
v -0.019134 -0.046194 0.075000
v -0.027778 -0.041574 -0.075000
v -0.027778 -0.041574 0.075000
v -0.035355 -0.035355 -0.075000
v -0.035355 -0.035355 0.075000
v -0.041574 -0.027779 -0.075000
v -0.041574 -0.027779 0.075000
v -0.046194 -0.019134 -0.075000
v -0.046194 -0.019134 0.075000
v -0.049039 -0.009755 -0.075000
v -0.049039 -0.009755 0.075000
v -0.050000 -0.000000 -0.075000
v -0.050000 -0.000000 0.075000
v -0.049039 0.009754 -0.075000
v -0.049039 0.009754 0.075000
v -0.046194 0.019134 -0.075000
v -0.046194 0.019134 0.075000
v -0.041574 0.027778 -0.075000
v -0.041574 0.027778 0.075000
v -0.035355 0.035355 -0.075000
v -0.035355 0.035355 0.075000
v -0.027778 0.041574 -0.075000
v -0.027778 0.041574 0.075000
v -0.019134 0.046194 -0.075000
v -0.019134 0.046194 0.075000
v -0.009754 0.049039 -0.075000
v -0.009754 0.049039 0.075000
vt 0.750000 0.250000
vt 0.750000 0.490000
vt 0.703178 0.485388
vt 0.250000 0.250000
vt 0.296822 0.485388
vt 0.250000 0.490000
vt 1.000000 0.500000
vt 1.000000 1.000000
vt 0.968750 1.000000
vt 0.968750 0.500000
vt 0.658156 0.471731
vt 0.341844 0.471731
vt 0.937500 1.000000
vt 0.937500 0.500000
vt 0.616663 0.449553
vt 0.383337 0.449553
vt 0.906250 1.000000
vt 0.906250 0.500000
vt 0.580294 0.419706
vt 0.419706 0.419706
vt 0.875000 1.000000
vt 0.875000 0.500000
vt 0.550447 0.383337
vt 0.449553 0.383337
vt 0.843750 1.000000
vt 0.843750 0.500000
vt 0.528269 0.341844
vt 0.471731 0.341844
vt 0.812500 1.000000
vt 0.812500 0.500000
vt 0.514612 0.296822
vt 0.485388 0.296822
vt 0.781250 1.000000
vt 0.781250 0.500000
vt 0.510000 0.250000
vt 0.490000 0.250000
vt 0.750000 1.000000
vt 0.750000 0.500000
vt 0.514612 0.203178
vt 0.485388 0.203178
vt 0.718750 1.000000
vt 0.718750 0.500000
vt 0.528269 0.158156
vt 0.471731 0.158156
vt 0.687500 1.000000
vt 0.687500 0.500000
vt 0.550447 0.116663
vt 0.449553 0.116663
vt 0.656250 1.000000
vt 0.656250 0.500000
vt 0.580294 0.080294
vt 0.419706 0.080294
vt 0.625000 1.000000
vt 0.625000 0.500000
vt 0.616663 0.050447
vt 0.383337 0.050447
vt 0.593750 1.000000
vt 0.593750 0.500000
vt 0.658156 0.028269
vt 0.341844 0.028269
vt 0.562500 1.000000
vt 0.562500 0.500000
vt 0.703178 0.014612
vt 0.296822 0.014612
vt 0.531250 1.000000
vt 0.531250 0.500000
vt 0.750000 0.010000
vt 0.250000 0.010000
vt 0.500000 1.000000
vt 0.500000 0.500000
vt 0.796822 0.014612
vt 0.203178 0.014612
vt 0.468750 1.000000
vt 0.468750 0.500000
vt 0.841844 0.028269
vt 0.158156 0.028269
vt 0.437500 1.000000
vt 0.437500 0.500000
vt 0.883337 0.050447
vt 0.116663 0.050447
vt 0.406250 1.000000
vt 0.406250 0.500000
vt 0.919706 0.080294
vt 0.080294 0.080294
vt 0.375000 1.000000
vt 0.375000 0.500000
vt 0.949553 0.116663
vt 0.050447 0.116663
vt 0.343750 1.000000
vt 0.343750 0.500000
vt 0.971731 0.158156
vt 0.028269 0.158156
vt 0.312500 1.000000
vt 0.312500 0.500000
vt 0.985388 0.203178
vt 0.014612 0.203178
vt 0.281250 1.000000
vt 0.281250 0.500000
vt 0.990000 0.250000
vt 0.010000 0.250000
vt 0.250000 1.000000
vt 0.250000 0.500000
vt 0.985388 0.296822
vt 0.014612 0.296822
vt 0.218750 1.000000
vt 0.218750 0.500000
vt 0.971731 0.341844
vt 0.028269 0.341844
vt 0.187500 1.000000
vt 0.187500 0.500000
vt 0.949553 0.383337
vt 0.050447 0.383337
vt 0.156250 1.000000
vt 0.156250 0.500000
vt 0.919706 0.419706
vt 0.080294 0.419706
vt 0.125000 1.000000
vt 0.125000 0.500000
vt 0.883337 0.449553
vt 0.116663 0.449553
vt 0.093750 1.000000
vt 0.093750 0.500000
vt 0.841844 0.471731
vt 0.158156 0.471731
vt 0.062500 1.000000
vt 0.062500 0.500000
vt 0.796822 0.485388
vt 0.203178 0.485388
vt 0.031250 1.000000
vt 0.031250 0.500000
vt 0.000000 1.000000
vt 0.000000 0.500000
vn -0.0000 0.0000 -1.0000
vn 0.0000 0.0000 1.0000
vn 0.0000 1.0000 0.0000
vn 0.1951 0.9808 0.0000
vn 0.3827 0.9239 0.0000
vn 0.5556 0.8315 0.0000
vn 0.7071 0.7071 0.0000
vn 0.8315 0.5556 0.0000
vn 0.9239 0.3827 0.0000
vn 0.9808 0.1951 0.0000
vn 1.0000 0.0000 0.0000
vn 0.9808 -0.1951 -0.0000
vn 0.9239 -0.3827 -0.0000
vn 0.8315 -0.5556 -0.0000
vn 0.7071 -0.7071 -0.0000
vn 0.5556 -0.8315 -0.0000
vn 0.3827 -0.9239 -0.0000
vn 0.1951 -0.9808 -0.0000
vn 0.0000 -1.0000 -0.0000
vn -0.1951 -0.9808 -0.0000
vn -0.3827 -0.9239 -0.0000
vn -0.5556 -0.8315 -0.0000
vn -0.7071 -0.7071 -0.0000
vn -0.8315 -0.5556 -0.0000
vn -0.9239 -0.3827 -0.0000
vn -0.9808 -0.1951 -0.0000
vn -1.0000 0.0000 -0.0000
vn -0.9808 0.1951 0.0000
vn -0.9239 0.3827 0.0000
vn -0.8315 0.5556 0.0000
vn -0.7071 0.7071 0.0000
vn -0.5556 0.8315 0.0000
vn -0.3827 0.9239 0.0000
vn -0.1951 0.9808 0.0000
usemtl cylinder_material
s 1
f 1/1/1 2/2/1 3/3/1
f 4/4/2 5/5/2 6/6/2
f 2/7/3 6/8/3 5/9/4 3/10/4
f 1/1/1 3/3/1 7/11/1
f 4/4/2 8/12/2 5/5/2
f 3/10/4 5/9/4 8/13/5 7/14/5
f 1/1/1 7/11/1 9/15/1
f 4/4/2 10/16/2 8/12/2
f 7/14/5 8/13/5 10/17/6 9/18/6
f 1/1/1 9/15/1 11/19/1
f 4/4/2 12/20/2 10/16/2
f 9/18/6 10/17/6 12/21/7 11/22/7
f 1/1/1 11/19/1 13/23/1
f 4/4/2 14/24/2 12/20/2
f 11/22/7 12/21/7 14/25/8 13/26/8
f 1/1/1 13/23/1 15/27/1
f 4/4/2 16/28/2 14/24/2
f 13/26/8 14/25/8 16/29/9 15/30/9
f 1/1/1 15/27/1 17/31/1
f 4/4/2 18/32/2 16/28/2
f 15/30/9 16/29/9 18/33/10 17/34/10
f 1/1/1 17/31/1 19/35/1
f 4/4/2 20/36/2 18/32/2
f 17/34/10 18/33/10 20/37/11 19/38/11
f 1/1/1 19/35/1 21/39/1
f 4/4/2 22/40/2 20/36/2
f 19/38/11 20/37/11 22/41/12 21/42/12
f 1/1/1 21/39/1 23/43/1
f 4/4/2 24/44/2 22/40/2
f 21/42/12 22/41/12 24/45/13 23/46/13
f 1/1/1 23/43/1 25/47/1
f 4/4/2 26/48/2 24/44/2
f 23/46/13 24/45/13 26/49/14 25/50/14
f 1/1/1 25/47/1 27/51/1
f 4/4/2 28/52/2 26/48/2
f 25/50/14 26/49/14 28/53/15 27/54/15
f 1/1/1 27/51/1 29/55/1
f 4/4/2 30/56/2 28/52/2
f 27/54/15 28/53/15 30/57/16 29/58/16
f 1/1/1 29/55/1 31/59/1
f 4/4/2 32/60/2 30/56/2
f 29/58/16 30/57/16 32/61/17 31/62/17
f 1/1/1 31/59/1 33/63/1
f 4/4/2 34/64/2 32/60/2
f 31/62/17 32/61/17 34/65/18 33/66/18
f 1/1/1 33/63/1 35/67/1
f 4/4/2 36/68/2 34/64/2
f 33/66/18 34/65/18 36/69/19 35/70/19
f 1/1/1 35/67/1 37/71/1
f 4/4/2 38/72/2 36/68/2
f 35/70/19 36/69/19 38/73/20 37/74/20
f 1/1/1 37/71/1 39/75/1
f 4/4/2 40/76/2 38/72/2
f 37/74/20 38/73/20 40/77/21 39/78/21
f 1/1/1 39/75/1 41/79/1
f 4/4/2 42/80/2 40/76/2
f 39/78/21 40/77/21 42/81/22 41/82/22
f 1/1/1 41/79/1 43/83/1
f 4/4/2 44/84/2 42/80/2
f 41/82/22 42/81/22 44/85/23 43/86/23
f 1/1/1 43/83/1 45/87/1
f 4/4/2 46/88/2 44/84/2
f 43/86/23 44/85/23 46/89/24 45/90/24
f 1/1/1 45/87/1 47/91/1
f 4/4/2 48/92/2 46/88/2
f 45/90/24 46/89/24 48/93/25 47/94/25
f 1/1/1 47/91/1 49/95/1
f 4/4/2 50/96/2 48/92/2
f 47/94/25 48/93/25 50/97/26 49/98/26
f 1/1/1 49/95/1 51/99/1
f 4/4/2 52/100/2 50/96/2
f 49/98/26 50/97/26 52/101/27 51/102/27
f 1/1/1 51/99/1 53/103/1
f 4/4/2 54/104/2 52/100/2
f 51/102/27 52/101/27 54/105/28 53/106/28
f 1/1/1 53/103/1 55/107/1
f 4/4/2 56/108/2 54/104/2
f 53/106/28 54/105/28 56/109/29 55/110/29
f 1/1/1 55/107/1 57/111/1
f 4/4/2 58/112/2 56/108/2
f 55/110/29 56/109/29 58/113/30 57/114/30
f 1/1/1 57/111/1 59/115/1
f 4/4/2 60/116/2 58/112/2
f 57/114/30 58/113/30 60/117/31 59/118/31
f 1/1/1 59/115/1 61/119/1
f 4/4/2 62/120/2 60/116/2
f 59/118/31 60/117/31 62/121/32 61/122/32
f 1/1/1 61/119/1 63/123/1
f 4/4/2 64/124/2 62/120/2
f 61/122/32 62/121/32 64/125/33 63/126/33
f 1/1/1 63/123/1 65/127/1
f 4/4/2 66/128/2 64/124/2
f 63/126/33 64/125/33 66/129/34 65/130/34
f 1/1/1 65/127/1 2/2/1
f 4/4/2 6/6/2 66/128/2
f 65/130/34 66/129/34 6/131/3 2/132/3
